<svg width="126" height="126" viewBox="0 0 126 126" fill="none" xmlns="http://www.w3.org/2000/svg">
<g id="Group 72">
<path id="Vector" d="M110.667 0H13.8333C6.19339 0 0 6.19339 0 13.8333V110.667C0 118.307 6.19339 124.5 13.8333 124.5H110.667C118.307 124.5 124.5 118.307 124.5 110.667V13.8333C124.5 6.19339 118.307 0 110.667 0Z" fill="#CDD6D7"/>
<path id="Vector_2" d="M38.043 48.4168C43.7729 48.4168 48.418 43.7717 48.418 38.0418C48.418 32.3118 43.7729 27.6668 38.043 27.6668C32.313 27.6668 27.668 32.3118 27.668 38.0418C27.668 43.7717 32.313 48.4168 38.043 48.4168Z" stroke="white" stroke-width="2.5" stroke-linecap="round" stroke-linejoin="round"/>
<path id="Vector_3" d="M124.499 83.0001L89.9154 48.4167L13.832 124.5" stroke="white" stroke-width="2.5" stroke-linecap="round" stroke-linejoin="round"/>
</g>
</svg>
