<svg width="24" height="24" viewBox="0 0 24 24" fill="none" xmlns="http://www.w3.org/2000/svg">
<g clip-path="url(#clip0_369_6955)">
<path d="M18.2573 16.0317L12.3378 23.8324C12.1683 24.0559 11.8315 24.0557 11.6621 23.8324L5.74262 16.0317C5.60472 15.8503 5.8105 15.609 6.01098 15.7161L11.8005 18.8007C11.9236 18.8665 12.0716 18.867 12.1951 18.8029L17.9889 15.7161C18.1894 15.609 18.3952 15.8503 18.2573 16.0317Z" fill="#141414"/>
<path d="M18.2573 16.0317C18.2573 16.0317 12.3362 23.8346 12.3353 23.8357C12.2268 23.9759 12 23.8911 12 23.7139V19.0207C12 18.9506 12.0387 18.8862 12.1005 18.8533L17.989 15.7161C18.1894 15.609 18.3952 15.8503 18.2573 16.0317Z" fill="#141414"/>
<path d="M18.5809 10.2119L12.1973 13.5665C12.0756 13.6315 11.9246 13.6316 11.8027 13.5665L5.41914 10.2119C5.19532 10.0942 5.12372 9.80776 5.26533 9.59826L11.6489 0.18627C11.8162 -0.0615202 12.1825 -0.0621567 12.3506 0.18574L18.7347 9.59826C18.8763 9.80776 18.8047 10.0942 18.5809 10.2119Z" fill="#141414"/>
<path d="M18.5809 10.2119C18.5809 10.2119 12.1961 13.5671 12.1954 13.5675C12.1066 13.6143 12 13.5449 12 13.4445V0.170237C12 0.0711637 12.1042 0.00104843 12.1925 0.0458119C12.2536 0.0767856 12.3083 0.123405 12.3505 0.185724L18.7346 9.59825C18.8763 9.80775 18.8047 10.0941 18.5809 10.2119Z" fill="#141414"/>
<path d="M11.8026 16.6979L4.8017 13.0187C4.59427 12.9097 4.5145 12.6532 4.62349 12.4458C4.73259 12.2383 4.98913 12.1586 5.19651 12.2676L12 15.843L18.8035 12.2675C19.0109 12.1584 19.2675 12.2383 19.3765 12.4457C19.4855 12.6532 19.4058 12.9097 19.1983 13.0187L12.1974 16.6979C12.0738 16.7629 11.9262 16.7629 11.8026 16.6979Z" fill="#141414"/>
<path d="M12.1782 0.039368C12.0933 0.00860639 12 0.076388 12 0.170264V7.23737C12 7.49439 11.8827 7.73645 11.6834 7.8988C10.3695 8.96957 8.7532 9.3045 7.08979 9.10657C6.4605 9.03168 6.13735 8.3126 6.49302 7.78811L11.6488 0.186281C11.771 0.00531809 12.0013 -0.0441127 12.1782 0.039368Z" fill="#141414"/>
<path d="M11.2062 18.8907C10.9249 19.6813 10.282 20.2955 9.43247 20.4912C9.27235 20.5281 9.10576 20.4635 9.00642 20.3327L5.74262 16.0317C5.60472 15.8503 5.8105 15.609 6.01098 15.7161L11.0045 18.377C11.189 18.4753 11.2763 18.6939 11.2062 18.8907Z" fill="#141414"/>
</g>
<defs>
<clipPath id="clip0_369_6955">
<rect width="24" height="24" fill="white"/>
</clipPath>
</defs>
</svg>
