<svg width="32" height="32" viewBox="0 0 32 32" fill="none" xmlns="http://www.w3.org/2000/svg">
<g id="matic (2) 1">
<path id="Vector" d="M21.3806 11.395L10.6306 17.6075C10.4327 17.7206 10.2086 17.7801 9.98063 17.7801C9.75263 17.7801 9.52858 17.7206 9.33063 17.6075L5.88813 15.625C5.69295 15.5094 5.53142 15.3447 5.41958 15.1474C5.30774 14.95 5.2495 14.7268 5.25063 14.5V10.535C5.25077 10.3069 5.31091 10.0829 5.425 9.88546C5.53909 9.68799 5.70312 9.52401 5.90063 9.40999L9.33313 7.42749C9.53108 7.31436 9.75513 7.25485 9.98313 7.25485C10.2111 7.25485 10.4352 7.31436 10.6331 7.42749L14.0656 9.40999C14.2631 9.52401 14.4272 9.68799 14.5413 9.88546C14.6553 10.0829 14.7155 10.3069 14.7156 10.535V12.4375C14.7157 12.4943 14.7306 12.55 14.759 12.5992C14.7873 12.6484 14.828 12.6894 14.877 12.7179C14.9261 12.7465 14.9818 12.7617 15.0386 12.7621C15.0953 12.7625 15.1512 12.7479 15.2006 12.72L16.9881 11.6875C17.0866 11.6304 17.1682 11.5483 17.2249 11.4495C17.2815 11.3508 17.3111 11.2388 17.3106 11.125V9.03499C17.3105 8.80722 17.2506 8.58348 17.137 8.38608C17.0234 8.18868 16.86 8.02452 16.6631 7.90999L10.6206 4.42999C10.4231 4.31564 10.1989 4.25543 9.97063 4.25543C9.74238 4.25543 9.51817 4.31564 9.32063 4.42999L3.29062 7.90999C3.09312 8.02401 2.92909 8.18799 2.815 8.38546C2.70091 8.58292 2.64077 8.80693 2.64062 9.03499V16C2.64077 16.228 2.70091 16.452 2.815 16.6495C2.92909 16.847 3.09312 17.011 3.29062 17.125L9.32063 20.605C9.51817 20.7193 9.74238 20.7795 9.97063 20.7795C10.1989 20.7795 10.4231 20.7193 10.6206 20.605L21.3706 14.3925C21.5686 14.2794 21.7926 14.2199 22.0206 14.2199C22.2486 14.2199 22.4727 14.2794 22.6706 14.3925L26.1031 16.375C26.3006 16.489 26.4647 16.653 26.5788 16.8505C26.6928 17.0479 26.753 17.2719 26.7531 17.5V21.465C26.753 21.693 26.6928 21.917 26.5788 22.1145C26.4647 22.312 26.3006 22.476 26.1031 22.59L22.6806 24.5725C22.4827 24.6856 22.2586 24.7451 22.0306 24.7451C21.8026 24.7451 21.5786 24.6856 21.3806 24.5725L17.9481 22.59C17.7506 22.476 17.5866 22.312 17.4725 22.1145C17.3584 21.917 17.2983 21.693 17.2981 21.465V19.56C17.2984 19.5031 17.2836 19.4472 17.2553 19.3979C17.227 19.3486 17.1861 19.3077 17.1369 19.2793C17.0876 19.2508 17.0318 19.2359 16.9749 19.2361C16.918 19.2362 16.8622 19.2513 16.8131 19.28L15.0256 20.31C14.9273 20.3673 14.8458 20.4494 14.7892 20.5482C14.7326 20.6469 14.7029 20.7587 14.7031 20.8725V22.965C14.7033 23.1927 14.7631 23.4165 14.8768 23.6139C14.9904 23.8113 15.1538 23.9755 15.3506 24.09L21.3806 27.57C21.5782 27.6843 21.8024 27.7445 22.0306 27.7445C22.2589 27.7445 22.4831 27.6843 22.6806 27.57L28.7106 24.09C28.9081 23.976 29.0722 23.812 29.1863 23.6145C29.3003 23.417 29.3605 23.193 29.3606 22.965V16C29.3605 15.7719 29.3003 15.5479 29.1863 15.3505C29.0722 15.153 28.9081 14.989 28.7106 14.875L22.6806 11.395C22.4831 11.2806 22.2589 11.2204 22.0306 11.2204C21.8024 11.2204 21.5782 11.2806 21.3806 11.395Z" fill="#4A4A4A"/>
</g>
</svg>
