<svg width="16" height="16" viewBox="0 0 16 16" fill="none" xmlns="http://www.w3.org/2000/svg">
<path d="M7.25739 1.03953C7.49113 0.320156 8.50887 0.320153 8.74261 1.03954L9.75308 4.14947C9.99149 4.88321 10.6752 5.37998 11.4467 5.37998H14.7167C15.4731 5.37998 15.7876 6.3479 15.1757 6.79251L12.5302 8.71455C11.9061 9.16803 11.6449 9.97183 11.8833 10.7056L12.8938 13.8155C13.1275 14.5349 12.3041 15.1331 11.6922 14.6885L9.04674 12.7664C8.42258 12.313 7.57741 12.313 6.95326 12.7664L4.30779 14.6885C3.69585 15.1331 2.87249 14.5349 3.10623 13.8155L4.11671 10.7056C4.35512 9.97183 4.09394 9.16803 3.46979 8.71455L0.824321 6.79251C0.212382 6.34791 0.526875 5.37998 1.28328 5.37998H4.55325C5.32475 5.37998 6.00851 4.8832 6.24692 4.14946L7.25739 1.03953Z" stroke="black"/>
</svg>
