<svg width="24" height="24" viewBox="0 0 24 24" fill="none" xmlns="http://www.w3.org/2000/svg">
<g clipPath="url(#clip0_93_3509)">
<path d="M18.2568 16.0317L12.3373 23.8324C12.1678 24.0559 11.831 24.0557 11.6616 23.8324L5.74213 16.0317C5.60423 15.8503 5.81001 15.609 6.0105 15.7161L11.8 18.8007C11.9231 18.8665 12.0711 18.867 12.1946 18.8029L17.9884 15.7161C18.1889 15.609 18.3947 15.8503 18.2568 16.0317Z" fill="black"/>
<path d="M18.2573 16.0317C18.2573 16.0317 12.3362 23.8346 12.3353 23.8357C12.2268 23.9759 12 23.8911 12 23.7139V19.0207C12 18.9506 12.0387 18.8862 12.1005 18.8533L17.989 15.7161C18.1894 15.609 18.3952 15.8503 18.2573 16.0317Z" fill="black"/>
<path d="M18.5799 10.2119L12.1963 13.5665C12.0747 13.6315 11.9237 13.6316 11.8017 13.5665L5.41816 10.2119C5.19435 10.0942 5.12275 9.80776 5.26436 9.59826L11.6479 0.18627C11.8153 -0.0615202 12.1815 -0.0621567 12.3496 0.18574L18.7337 9.59826C18.8753 9.80776 18.8037 10.0942 18.5799 10.2119Z" fill="black"/>
<path d="M18.5809 10.2119C18.5809 10.2119 12.1961 13.5671 12.1954 13.5675C12.1066 13.6144 12 13.5449 12 13.4445V0.170253C12 0.071179 12.1042 0.00106369 12.1925 0.0458271C12.2536 0.0768009 12.3083 0.123421 12.3505 0.185739L18.7346 9.59826C18.8763 9.80776 18.8047 10.0942 18.5809 10.2119Z" fill="black"/>
<path d="M11.8021 16.6979L4.80121 13.0187C4.59378 12.9097 4.51401 12.6532 4.623 12.4458C4.7321 12.2383 4.98864 12.1586 5.19602 12.2676L11.9995 15.843L18.803 12.2675C19.0104 12.1584 19.267 12.2383 19.3761 12.4457C19.4851 12.6532 19.4053 12.9097 19.1979 13.0187L12.1969 16.6979C12.0734 16.7629 11.9257 16.7629 11.8021 16.6979Z" fill="black"/>
<path d="M12.1782 0.0393527C12.0933 0.00859113 12 0.0763728 12 0.170249V7.23736C12 7.49438 11.8827 7.73644 11.6834 7.89879C10.3695 8.96956 8.7532 9.30449 7.08979 9.10655C6.4605 9.03166 6.13735 8.31258 6.49302 7.7881L11.6488 0.186266C11.771 0.00530283 12.0013 -0.0441279 12.1782 0.0393527Z" fill="black"/>
<path d="M11.2058 18.8907C10.9245 19.6813 10.2815 20.2955 9.43198 20.4912C9.27186 20.5281 9.10527 20.4635 9.00593 20.3326L5.74213 16.0317C5.60423 15.8503 5.81001 15.609 6.0105 15.7161L11.0041 18.377C11.1885 18.4753 11.2758 18.6938 11.2058 18.8907Z" fill="black"/>
</g>
<defs>
<clipPath id="clip0_93_3509">
<rect width="24" height="24" fill="white"/>
</clipPath>
</defs>
</svg>
